<svg width="364" height="336" viewBox="0 0 364 336" fill="none" xmlns="http://www.w3.org/2000/svg">
<path d="M363.75 66.3809C363.75 121.975 348.367 173.975 321.614 218.361C290.51 269.998 244.017 311.328 188.486 336C186.554 335.256 184.629 334.487 182.716 333.693C156.007 322.705 131.266 307.903 109.17 289.957C107.576 287.157 106.051 284.313 104.595 281.419C91.4431 255.316 84.0234 225.712 84.0234 194.34C84.0234 185.001 84.6798 175.825 85.9549 166.849C88.8365 146.422 94.8997 127.044 103.601 109.255C105.976 115.274 108.664 121.137 111.645 126.819C111.658 126.85 111.67 126.882 111.689 126.913C114.414 132.57 117.609 137.952 121.228 143.015C141.061 170.768 173.553 188.858 210.263 188.858C221.289 188.858 231.941 187.226 241.979 184.188C247.324 182.57 252.499 180.669 257.462 178.294C257.462 178.257 257.462 178.332 257.462 178.294C315.451 151.397 356.637 94.403 360.968 27.3701C361.05 27.4201 361.131 27.4639 361.206 27.5076C362.887 40.2279 363.75 53.2044 363.75 66.3809Z" fill="url(#paint0_linear_247_48)"/>
<path d="M85.9476 166.849C84.6724 175.825 84.0161 185.001 84.0161 194.34C84.0161 225.712 91.4357 255.316 104.587 281.419C106.044 284.313 107.569 287.157 109.163 289.957C105.981 287.376 102.85 284.731 99.7804 282.006C38.592 227.981 0 148.947 0 60.8928C0 46.5911 1.01887 32.5332 2.98785 18.7753C3.00035 18.6691 3.01909 18.5566 3.03785 18.4503C25.1404 8.94919 50.3309 2.25466 75.8651 0.773233C113.113 -1.38327 123.433 0.904503 171.364 8.47414C135.935 39.734 103.887 108.642 103.587 109.248C94.8861 127.038 88.8229 146.415 85.9413 166.843L85.9476 166.849Z" fill="url(#paint1_linear_247_48)"/>
<path d="M360.963 27.3701C356.631 94.4029 315.445 151.397 257.457 178.294C257.457 178.256 257.457 178.331 257.457 178.294C252.494 180.669 247.318 182.569 241.974 184.188C247.1 174.269 251.338 163.817 254.594 152.941C259.557 136.345 262.22 118.762 262.22 100.554C262.22 66.3184 252.794 34.2834 236.398 6.90516C247.531 4.79241 259.014 3.68604 270.746 3.68604C277.259 3.68604 283.692 4.02357 290.03 4.68615C315.545 7.36146 339.542 15.2811 360.963 27.3701Z" fill="url(#paint2_linear_247_48)"/>
<defs>
<linearGradient id="paint0_linear_247_48" x1="-68.982" y1="181.688" x2="363.931" y2="181.688" gradientUnits="userSpaceOnUse">
<stop offset="0.28" stop-color="#1C4CA5"/>
<stop offset="0.75" stop-color="#5AD3F1"/>
</linearGradient>
<linearGradient id="paint1_linear_247_48" x1="55.9503" y1="-23.8671" x2="171" y2="290" gradientUnits="userSpaceOnUse">
<stop offset="0.245192" stop-color="#5AD3F1"/>
<stop offset="1" stop-color="#1F5AC7"/>
</linearGradient>
<linearGradient id="paint2_linear_247_48" x1="299" y1="-4" x2="250.5" y2="184" gradientUnits="userSpaceOnUse">
<stop stop-color="#5AD3F1"/>
<stop offset="1" stop-color="#1C57A5"/>
</linearGradient>
</defs>
</svg>
